<?xml version="1.0" standalone="no"?><!DOCTYPE svg PUBLIC "-//W3C//DTD SVG 1.1//EN" "http://www.w3.org/Graphics/SVG/1.1/DTD/svg11.dtd"><svg class="icon" width="200px" height="200.00px" viewBox="0 0 1024 1024" version="1.1" xmlns="http://www.w3.org/2000/svg"><path d="M159.354452 369.385091c0 195.714891 158.660368 354.374259 354.375259 354.374259 195.713891 0 354.374259-158.659368 354.374259-354.374259 0-195.717891-158.660368-354.374259-354.374259-354.374259-195.714891 0-354.375259 158.656367-354.375259 354.374259z" fill="#FFB600" /><path d="M854.363292 369.385091c0 188.124964-152.508617 340.633581-340.634581 340.633581-188.124964 0-340.633581-152.508617-340.633581-340.633581 0-188.127965 152.508617-340.629581 340.633581-340.629581 188.125965 0 340.634581 152.501616 340.634581 340.629581z" fill="#FFE04A" /><path d="M513.731711 616.915307c-139.655048 0-260.580809-44.434424-318.50988-140.288125 54.170613 175.905473 240.67938 274.59652 416.587853 220.424907 105.42987-32.464963 187.965945-114.996038 220.427908-220.424907-57.922071 96.01172-178.850832 140.288125-318.505881 140.288125" fill="#FFD05A" /><path d="M308.968716 287.300071c-30.869768 0-55.892823 16.481012-55.892823 36.816494-0.014002 20.334482 25.005052 36.816494 55.875821 36.822495 30.868768 0.010001 55.902824-16.475011 55.908825-36.802493v-0.021002c0-20.333482-25.022054-36.815494-55.891823-36.815494zM718.492707 287.300071c-30.869768 0-55.892823 16.481012-55.892823 36.816494-0.010001 20.334482 25.010053 36.816494 55.878821 36.822495 30.869768 0.010001 55.899824-16.475011 55.908825-36.802493v-0.021002c0-20.333482-25.026055-36.815494-55.894823-36.815494z" fill="#FCBD83" /><path d="M350.509787 223.937336c-30.654742 0-55.510776 24.856034-55.510776 55.509776 0 30.658743 24.856034 55.510776 55.510776 55.510776 30.655742 0 55.511776-24.852034 55.511776-55.510776 0-30.653742-24.856034-55.509776-55.511776-55.509776zM676.951636 223.937336c-30.657742 0-55.508776 24.856034-55.508776 55.509776 0 30.658743 24.851034 55.510776 55.508776 55.510776 30.656742 0 55.505776-24.852034 55.505775-55.510776 0-30.653742-24.849033-55.509776-55.505775-55.509776z" fill="#3E3417" /><path d="M612.407757 470.807472c0 9.320138-7.556922 16.87406-16.87406 16.874059H431.926725c-9.320138 0-16.87706-7.553922-16.87706-16.874059 0-9.320138 7.556922-16.87706 16.87706-16.877061h163.607972c9.317137 0.001 16.87306 7.556922 16.87306 16.877061z" fill="#3E3417" /><path d="M177.086617 991.218998c37.373562 0.781095 75.20418 0.521064 113.490854-0.781095-1.433175 4.297525-3.256398 9.440152-5.469668 15.431884-39.067769 0.391048-76.181299 0.130016-111.341591-0.781096-21.618639-0.261032-37.049523-7.813954-46.294652-22.658765-5.469668 5.338652-13.282621 14.064717-23.440861 26.175195L96.021721 992.391141c9.767192-9.50616 18.10121-17.44913 25.003053-23.830909v-65.828035H97.779936v-14.454765h38.285674v83.213158c8.204001 12.762558 21.877671 19.338361 41.021007 19.728408z m-56.647915-168.574578c9.115113 11.590415 18.230225 23.896917 27.347338 36.918507l-13.868693 9.767192c-8.855081-14.064717-17.516138-26.825275-25.980171-38.285673l12.501526-8.400026z m34.184173 11.719431h132.047119v14.454765h-53.32651a304.353152 304.353152 0 0 1-9.376144 22.072694v21.291599l7.031858-8.204001c21.355607 16.277987 40.693968 31.839887 58.015082 46.685699l-11.134359 13.282621c-17.841178-16.408003-35.812372-31.708871-53.912581-45.903604v83.213158h-15.626908v-83.994253c-14.715796 21.227591-33.273062 39.523825-55.670796 54.889701-3.125382-3.775461-6.706819-7.682938-10.743311-11.720431 36.332435-24.74202 61.008447-55.279748 74.032037-91.613183h-61.335487v-14.454765zM340.817604 1010.167311h-14.845813v-64.070821h63.679774l3.223393-15.23586h-85.264408v-12.110478H499.821013v12.110478h-91.808207l-3.906477 15.23586h78.329562v43.755342c0 12.892574-6.445787 19.338361-19.338361 19.33836-6.250763 0-13.087598-0.131016-20.510503-0.391048-0.391048-4.297525-1.303159-9.312137-2.734334-15.040836 7.681938 0.781095 13.998709 1.172143 18.947313 1.172143 5.859715 0 8.790073-2.604318 8.790073-7.813953V958.206969H433.992978v46.489675h-13.868693V958.206969h-32.425959v46.489675h-13.868692V958.206969h-33.01203v51.960342z m-26.566243-159.004409h82.432062v-11.329383h-72.66487v-12.110479h157.832267v12.110479h-71.297704v11.329383h82.627087v36.332435h-15.040836v-24.221957h-67.586251v46.489675h-13.868693v-46.489675h-67.391226v24.221957h-15.040836v-36.332435z m26.175195 23.440861h45.903603v10.548288h-45.903603v-10.548288z m0 21.877671h45.903603v10.548287h-45.903603v-10.548287z m80.478824-21.877671h45.903604v10.548288h-45.903604v-10.548288z m0 21.877671h45.903604v10.548287h-45.903604v-10.548287zM609.444395 899.020744l-7.61793 12.501526a1186.653855 1186.653855 0 0 0-20.998563-10.060228c-13.282621 12.046471-31.611859 21.129579-54.986712 27.249326-0.913111-3.125382-3.647445-7.94297-8.204002-14.454764 20.444496-3.580437 36.755487-10.060228 48.931973-19.436373-11.395391-5.208636-22.36573-9.99422-32.914018-14.356753a436.745314 436.745314 0 0 0 11.13436-25.198075h-20.510504v-14.845813h26.175195a450.376978 450.376978 0 0 0 7.813954-23.440861l14.064717 2.53931a603.973727 603.973727 0 0 1-7.324894 20.900551h40.531947v14.454765c-2.084254 13.608661-7.064862 25.55712-14.942824 35.844375a3512.254742 3512.254742 0 0 1 18.847301 8.303014z m-76.377323 33.402077h59.96832c0.911111-5.07862 1.692207-10.48228 2.344286-16.212979h16.799051a1486.690481 1486.690481 0 0 1-2.637322 16.212979h80.185788c-0.391048 17.580146-0.912111 30.732752-1.563191 39.457817-0.912111 22.658766-12.501526 34.053157-34.770244 34.184173-9.376145 0.130016-21.161583 0-35.356316-0.391048-0.781095-5.469668-1.889231-11.134359-3.320405-16.994075 13.282621 1.302159 25.3941 1.953238 36.332435 1.953239 13.151605 0.260032 20.31548-6.055739 21.486623-18.947313 0.521064-5.469668 0.977119-13.933701 1.367167-25.3941h-67.098191c-8.008978 32.425958-33.500089 53.781565-76.474335 64.070821a84.316293 84.316293 0 0 0-9.767193-15.23586c37.568586-6.771827 60.684408-23.049814 69.344465-48.833961H533.065071v-13.869693z m58.015082-77.157418h-32.132923a350.386772 350.386772 0 0 1-8.497037 18.752289 1499.459039 1499.459039 0 0 1 26.468231 10.939335c6.96685-8.335017 11.687427-18.231225 14.161729-29.691624z m26.566243-3.320406l12.306502-6.250763c7.61793 14.454764 16.929067 26.403223 27.93341 35.844376 10.417272-9.897208 18.426249-22.170706 24.025932-36.820495h-63.874797v-14.064717h78.329562v14.064717c-5.273644 17.841178-14.227737 33.01203-26.858279 45.513556 12.04547 7.748946 25.687136 13.02259 40.922996 15.821931-2.86535 5.469668-4.883596 10.679304-6.055739 15.626908-17.711162-4.231517-33.305066-11.264375-46.782711-21.096575-11.395391 8.465033-24.971048 15.366876-40.727972 20.705527-1.303159-5.469668-3.256398-10.287256-5.859715-14.454764 13.347629-3.646445 25.06706-8.888085 35.160292-15.72492-11.330383-10.678304-20.837544-23.733897-28.519481-39.164781zM736.256875 862.102237h63.288726c0.391048-14.323749 0.650079-28.909529 0.781095-43.755341h16.994075a6707.11574 6707.11574 0 0 1-0.97712 43.755341h89.658945c-1.563191 50.918216-3.061374 86.924611-4.492548 108.021186-1.693207 22.398734-13.673669 33.728117-35.942388 33.988149-10.679304 0-23.570877-0.261032-38.676721-0.781095-0.521064-5.07862-1.498183-11.265375-2.930358-18.557265h0.586072c16.929067 1.563191 30.081672 2.278278 39.457816 2.148262 12.631542-0.261032 19.598392-7.227882 20.900552-20.900552 1.563191-23.309845 2.734334-52.610422 3.516429-87.90173h-72.469847c-1.172143 33.924141-6.576803 59.447257-16.212979 76.572347-10.288256 19.013321-30.342704 37.309554-60.163344 54.889701a1386.627266 1386.627266 0 0 0-11.720431-14.845812c28.25845-15.886939 46.815715-31.903895 55.670796-48.052866 9.181121-14.649788 14.323749-37.504578 15.431884-68.56337h-62.702654v-16.016955z" fill="#515151" /></svg>